<?xml version="1.0" standalone="no"?>
<!DOCTYPE svg PUBLIC "-//W3C//DTD SVG 20010904//EN"
 "http://www.w3.org/TR/2001/REC-SVG-20010904/DTD/svg10.dtd">
<svg version="1.0" xmlns="http://www.w3.org/2000/svg"
 width="1061.000000pt" height="355.000000pt" viewBox="0 0 1061.000000 355.000000"
 preserveAspectRatio="xMidYMid meet">

<g transform="translate(0.000000,355.000000) scale(0.100000,-0.100000)"
fill="#000000" stroke="none">
<path d="M144 3537 c-44 -17 -89 -57 -110 -97 -18 -34 -19 -96 -22 -1638 -1
-1101 1 -1616 8 -1643 11 -41 58 -102 94 -121 59 -32 48 -33 661 52 449 62
663 91 775 106 63 8 196 26 295 39 99 14 304 41 455 60 757 98 1063 151 1340
231 260 76 452 161 635 283 93 62 239 209 300 302 l49 75 108 21 c156 30 258
81 354 177 54 54 83 92 104 140 l30 66 2634 2 2634 3 39 31 c69 55 100 148 72
221 -12 34 -64 90 -101 109 -23 12 -408 14 -2652 14 l-2625 0 -25 56 c-59 128
-166 228 -306 284 -72 28 -197 60 -243 60 -16 0 -34 19 -67 73 -62 99 -214
249 -330 326 -341 224 -766 342 -1675 461 -876 115 -1686 225 -2148 290 -229
33 -239 34 -283 17z m516 -442 c102 -14 286 -39 410 -55 520 -71 1017 -138
1300 -173 l175 -22 3 -1062 2 -1062 -32 -5 c-38 -6 -231 -32 -613 -81 -148
-20 -351 -47 -450 -60 -576 -78 -969 -132 -1022 -141 l-33 -5 0 184 0 185 73
6 c39 3 221 15 402 26 615 38 590 35 648 89 42 38 59 77 59 135 1 62 -22 116
-64 151 -58 49 -70 50 -544 21 -242 -15 -469 -29 -506 -33 l-68 -6 0 202 0
201 200 0 c228 0 252 6 306 77 26 34 29 45 29 114 0 67 -3 79 -28 112 -53 70
-58 71 -292 77 l-210 5 -3 198 -2 197 26 0 c31 0 397 -23 733 -46 129 -9 249
-14 267 -11 17 3 50 17 73 31 104 66 112 229 16 308 -43 35 -84 46 -215 53
-63 3 -176 10 -250 15 -182 14 -600 40 -627 40 l-23 0 0 186 0 186 38 -6 c20
-4 120 -18 222 -31z m2675 -382 l80 -19 3 -911 2 -911 -32 -11 c-43 -13 -328
-70 -395 -78 l-53 -6 0 1005 0 1005 158 -28 c86 -15 193 -36 237 -46z m703
-271 c115 -76 199 -170 261 -290 27 -54 58 -105 68 -114 33 -30 91 -48 153
-48 144 0 289 -52 319 -115 37 -77 18 -194 -38 -234 -49 -35 -144 -60 -248
-65 -156 -8 -181 -24 -245 -151 -71 -140 -148 -226 -286 -318 -69 -46 -183
-107 -202 -107 -7 0 -10 254 -10 785 l0 785 73 -36 c39 -20 109 -61 155 -92z"/>
</g>
</svg>
